<?xml version="1.0" encoding="UTF-8"?>
<!DOCTYPE svg PUBLIC "-//W3C//DTD SVG 1.1//EN" "http://www.w3.org/Graphics/SVG/1.1/DTD/svg11.dtd">
<!-- Creator: CorelDRAW 2020 (64-Bit) -->
<svg xmlns="http://www.w3.org/2000/svg" xml:space="preserve" width="23.7352mm" height="7.2772mm" version="1.1" style="shape-rendering:geometricPrecision; text-rendering:geometricPrecision; image-rendering:optimizeQuality; fill-rule:evenodd; clip-rule:evenodd"
viewBox="0 0 944.99 289.73"
 xmlns:xlink="http://www.w3.org/1999/xlink"
 xmlns:xodm="http://www.corel.com/coreldraw/odm/2003">
 <defs>
  <style type="text/css">
   <![CDATA[
    .fil1 {fill:#FEFEFE}
    .fil0 {fill:#FEFEFE;fill-rule:nonzero}
   ]]>
  </style>
 </defs>
 <g id="Слой_x0020_1">
  <metadata id="CorelCorpID_0Corel-Layer"/>
  <g id="_2605282162608">
   <path class="fil0" d="M362.41 0l-79 67.93 0 221.8 323.64 -289.61 -124.8 0 -119.84 107.25 0 -107.37zm375.16 217.66l0 67.93 -161.82 0 0 -67.93 0 -146.62 75.18 -67.99 0 214.61 86.64 0zm41.41 -146.55l0 214.49 75.18 0 0 -214.49 15.65 0 75.18 -67.93 -169.83 0 -75.18 67.93 79 0z"/>
   <path class="fil1" d="M66.75 224.33c8.13,0 9.94,-8.46 5.65,-12.08 -3.08,-2.6 -7.76,-2.66 -10.48,-0.02 -5.65,5.47 -0.45,12.1 4.83,12.1zm-47.31 -104.64c-5.32,-0.94 -9.8,2.82 -10.6,7.23 -0.99,5.43 3.01,9.71 7.51,10.44 12.03,1.93 15.2,-15.52 3.09,-17.67zm16.36 7.38c0,5.4 -0.44,7.34 -3.49,11.87 -0.66,0.98 -1.15,1.38 -1.96,2.19 -9.28,9.39 -29.45,5.03 -30.32,-12.34 -0.35,-6.85 4.34,-13.37 9.91,-15.95 10.36,-4.81 22.02,0.44 25.22,10.71 0.2,0.65 0.64,2.76 0.64,3.52zm11.41 -120.43c-0.27,1.02 -3.09,3.77 -3.92,4.81 -1.38,1.72 -6.3,6.89 -7.09,8.07 0.59,0.88 4.7,4.18 5.86,5.35 0.74,0.74 1.33,0.96 1.93,1.78l9.95 -11.34c0.63,-0.73 1.23,-1.63 2,-2.15 0.98,0.65 1.75,1.58 2.67,2.31l10.05 8.85c0.42,0.39 0.51,0.39 0.92,0.73 0.39,0.33 0.57,0.59 0.94,0.93l5.65 4.94c0.06,0.05 0.17,0.14 0.23,0.19 1.7,1.42 3.35,3.16 5.08,4.48 0.7,0.53 1.03,1.02 1.75,1.57 0.49,0.37 0.47,0.35 0.9,0.76 0.46,0.44 0.57,0.45 1.03,0.84 0.69,0.57 1.01,0.97 1.76,1.57l5.51 4.87c0.36,0.3 0.5,0.52 0.84,0.82 0.41,0.37 0.51,0.36 0.93,0.73l6.27 5.56c0.04,0.03 0.08,0.07 0.12,0.1l9.09 7.94c0.36,0.34 0.55,0.6 0.94,0.92 3.46,2.9 9.83,8.92 12.73,11.16 0.76,0.59 1.06,1.03 1.87,1.66l20.91 18.34c2.13,1.88 4.13,3.91 6.35,5.69 1.98,1.58 3.5,3.25 5.55,4.83 1.28,0.99 2.42,2.32 3.62,3.23l4.52 4c0.41,0.37 0.51,0.36 0.93,0.73l1.88 1.66c1.09,1.07 2.88,2.19 3.68,3.38l-14.57 16.58c-0.49,0.61 -0.63,0.76 -1.17,1.33l-23.31 26.52c-0.46,-0.31 -0.57,-0.51 -1.01,-0.86l-9.33 -8.12c-0.39,-0.36 -0.53,-0.55 -0.96,-0.91l-13.58 -11.97c-0.46,-0.45 -0.57,-0.45 -1.03,-0.84 -2.13,-1.79 -4.09,-3.83 -6.26,-5.57l-4.1 -3.59c-0.51,-0.39 -0.63,-0.61 -1.07,-1 -0.45,-0.4 -0.59,-0.41 -1.04,-0.83l-3.22 -2.81c-0.37,-0.33 -0.56,-0.6 -0.94,-0.93l-3.22 -2.8c-3.36,-3.13 -7.05,-5.94 -10.39,-9.14 -2.67,-2.55 -5.8,-4.78 -8.41,-7.37l-2.13 -1.82 -2.7 7.06c-2.96,9.89 -4.16,17.23 -4.16,28.44 0,3.98 0.3,7.86 0.89,11.36 1.85,11.08 5.27,22.05 11.78,31.21 4.19,5.9 9.52,11.41 16.06,14.68 1.46,0.73 2.77,1.27 4.23,2.01 0.62,0.31 3.77,2.01 4.22,2.01l111.32 0 0 18.48 -120.46 0 13.08 60.84 50.05 0 0 -7.89c-2.02,1.07 -4.26,1.78 -6.37,2.77l-4.77 2.07c-0.7,0.34 -0.78,0.53 -1.73,0.55 -0.17,-1.99 -3.69,-7.42 -3.74,-9.55 1.17,-0.27 17.77,-7.62 19.15,-8.27l19.27 -8.35c1.18,-0.57 2.55,-1.12 3.75,-1.66 2.68,-1.21 17.89,-7.93 19.52,-8.31 0.75,1.41 1.27,3.11 2.01,4.64 0.49,1.02 1.92,3.92 1.94,4.92l-29.49 12.87 19.52 0 0 16.2 29.29 0c0.48,0 0.62,0.14 0.62,0.62l0 10.59c0,0.48 -0.14,0.63 -0.62,0.63l-199.8 0 0 -11.84 13.7 0c0.14,-1.6 0.74,-3.28 1.04,-4.98 1.41,-8.06 3.74,-16.97 5.38,-25.14l6.5 -30.25c1.58,-6.74 2.75,-13.45 4.32,-20.18l1.66 0c-0.78,-0.68 -2.62,-1.31 -3.6,-1.8l-3.53 -1.87c-4.08,-2.42 -6,-4.06 -9.58,-6.84 -3.04,-2.36 -5.67,-5.3 -8.15,-8.25 -6.12,-7.26 -10.47,-15.73 -13.49,-24.72l-1.33 -4.28c1.22,0 2.25,0.36 3.53,0.41l3.95 0.21c16.77,0 27.2,-19.15 17.24,-33.22 -3.94,-5.57 -10.73,-9.13 -17.65,-9.13 -2.23,0 -4.58,0.45 -6.65,0.62 0.02,-0.8 0.47,-1.87 0.74,-2.58l1.84 -5.22c0.37,-0.98 0.69,-1.55 1.07,-2.46 1.35,-3.24 2.98,-6.37 4.83,-9.3 0.48,-0.76 0.86,-1.39 1.37,-2.16l2.97 -4.08c1.05,-1.42 7.13,-8.69 8.58,-9.08 -0.26,-0.99 -1.33,-1.44 -2.02,-2.13 -0.5,-0.5 -0.6,-0.54 -1.12,-0.95l-5.63 -4.96c-0.44,-0.4 -0.57,-0.61 -1.07,-1 -0.58,-0.45 -0.61,-0.49 -1.11,-0.97 -1.51,-1.47 -5.69,-4.59 -6.7,-5.97 0.7,-1.33 1.94,-2.35 2.95,-3.49l0.57 -0.68c0.46,-0.55 0.84,-0.87 1.27,-1.43 1.48,-1.93 4.62,-5.14 6.58,-7.41 -0.42,-0.1 -0.39,-0.31 -1.18,-0.99l-6.66 -6c-1.01,0.68 -10.55,12.08 -11.42,12.66l-6.74 -5.93c-0.58,-0.44 -0.55,-0.33 -0.95,-0.92 0.36,-0.54 0.71,-0.78 1.17,-1.32l0.29 -0.34c0.02,-0.04 0.06,-0.08 0.09,-0.12 0.04,-0.05 0.15,-0.18 0.19,-0.22l13.69 -15.59c0.5,-0.6 0.74,-0.75 1.27,-1.43 1.54,-1.99 7.3,-8.17 9.52,-10.83 1.29,-1.52 11.38,-13.01 12.2,-13.56 0.51,0.76 6.58,6.04 7.48,6.64zm124.82 130.19l0 0zm0 0c0.92,-0.02 3.4,-0.7 4.43,-0.97l10.86 -2.64c0.89,-0.2 1.43,-0.37 2.16,-0.54l1.2 4.82c0.61,2.58 3.36,12.92 3.36,14.7 -0.96,0 -1.66,0.27 -2.6,0.51l-5.34 1.31c-0.64,0.14 -2.24,0.49 -2.65,0.68l9.76 8.72c-0.19,0.71 -0.18,0.47 -0.67,0.99l-3.22 3.64c-0.23,0.25 -0.17,0.19 -0.38,0.45l-8.61 9.87c-0.95,-0.64 -1.1,-0.91 -1.93,-1.6l-3.8 -3.26c-0.72,-0.56 -1.05,-1.33 -1.95,-1.58l-1.46 10.18 -21.81 -1.66 1.39 -10.65c0.27,-1.84 0.49,-3.4 0.78,-5.24l0.74 -5.28c-0.37,0.27 -0.84,0.94 -1.3,1.4 -0.59,0.58 -0.72,0.9 -1.24,1.46l-7.84 8.77 -4.57 -4.15 31.44 -35.84c0.03,-0.03 0.07,-0.08 0.1,-0.11l4.87 -5.52c0.58,-0.58 0.72,-0.9 1.25,-1.45 0.68,-0.72 0.71,-0.58 1.19,-1.5 1.19,0.63 2.56,2.22 3.62,3.03 0.62,0.47 0.75,0.51 1.16,1.13 -0.19,0.72 -3.8,4.42 -4.39,5.16l-4.54 5.22z"/>
  </g>
 </g>
</svg>
